<?xml version="1.0" encoding="UTF-8" standalone="no"?>
<!-- Generator: Adobe Illustrator 26.0.3, SVG Export Plug-In . SVG Version: 6.00 Build 0)  -->

<svg
   version="1.1"
   id="Layer_1"
   x="0px"
   y="0px"
   viewBox="0 0 300 75.1"
   style="enable-background:new 0 0 300 75.1;"
   xml:space="preserve"
   sodipodi:docname="oe_logo_course.svg"
   inkscape:version="1.2.2 (732a01da63, 2022-12-09)"
   inkscape:export-filename="oe_logo_course.png"
   inkscape:export-xdpi="96"
   inkscape:export-ydpi="96"
   xmlns:inkscape="http://www.inkscape.org/namespaces/inkscape"
   xmlns:sodipodi="http://sodipodi.sourceforge.net/DTD/sodipodi-0.dtd"
   xmlns="http://www.w3.org/2000/svg"
   xmlns:svg="http://www.w3.org/2000/svg"><defs
   id="defs62" /><sodipodi:namedview
   id="namedview60"
   pagecolor="#ffffff"
   bordercolor="#000000"
   borderopacity="0.25"
   inkscape:showpageshadow="2"
   inkscape:pageopacity="0.0"
   inkscape:pagecheckerboard="0"
   inkscape:deskcolor="#d1d1d1"
   showgrid="false"
   inkscape:zoom="4.0333333"
   inkscape:cx="146.90083"
   inkscape:cy="37.561983"
   inkscape:window-width="1920"
   inkscape:window-height="1052"
   inkscape:window-x="-8"
   inkscape:window-y="-8"
   inkscape:window-maximized="1"
   inkscape:current-layer="Layer_1" />
<style
   type="text/css"
   id="style2">
	.st0{fill:#FFFFFF;}
	.st1{fill:none;stroke:#2FB6DF;stroke-width:3.59;stroke-linecap:round;stroke-miterlimit:10;}
	.st2{fill:none;stroke:#D6AACD;stroke-width:3.59;stroke-linecap:round;stroke-miterlimit:10;}
	.st3{fill:none;stroke:#B5B5B6;stroke-width:3.59;stroke-linecap:round;stroke-miterlimit:10;}
	.st4{fill:none;stroke:#EA6A3F;stroke-width:3.59;stroke-linecap:round;stroke-miterlimit:10;}
	.st5{fill:none;stroke:#FBD026;stroke-width:3.59;stroke-linecap:round;stroke-miterlimit:10;}
	.st6{fill:#2FB6DF;}
	.st7{fill:none;stroke:#D15527;stroke-width:3.59;stroke-linecap:round;stroke-miterlimit:10;}
	.st8{fill:none;}
</style>

<g
   id="g57"
   style="fill:#ffffff;stroke:#ffffff"
   transform="translate(0,-4)">
	<path
   class="st0"
   d="m 85.9,21.3 h 9.6 c 0.9,0 1.5,0.6 1.5,1.5 0,0.9 -0.6,1.5 -1.5,1.5 h -8.1 v 10.2 h 7.1 c 0.9,0 1.5,0.6 1.5,1.5 0,0.9 -0.6,1.5 -1.5,1.5 h -7.1 v 11.1 h 8.1 c 0.9,0 1.5,0.6 1.5,1.5 0,0.9 -0.6,1.5 -1.5,1.5 H 85.9 C 85,51.6 84.4,51 84.4,50.1 V 22.8 c 0,-0.9 0.6,-1.5 1.5,-1.5 z"
   id="path35"
   style="fill:#ffffff;stroke:#ffffff;stroke-width:1.5;stroke-dasharray:none" />
	<path
   class="st0"
   d="M 100.5,60.1 V 31.4 c 0,-0.8 0.6,-1.4 1.4,-1.4 h 4.8 c 3.4,0 6.2,2.8 6.2,6.2 v 9.2 c 0,3.5 -2.8,6.2 -6.2,6.2 h -3.4 V 60 c 0,0.8 -0.7,1.4 -1.4,1.4 -0.7,0.1 -1.4,-0.5 -1.4,-1.3 z m 6.3,-27.2 h -3.4 v 15.9 h 3.4 c 1.9,0 3.4,-1.5 3.4,-3.4 v -9.2 c -0.1,-1.8 -1.5,-3.3 -3.4,-3.3 z"
   id="path37"
   style="fill:#ffffff;stroke:#ffffff;stroke-width:1.5;stroke-dasharray:none" />
	<path
   class="st0"
   d="M 117.2,50.5 V 21.7 c 0,-0.8 0.7,-1.4 1.4,-1.4 0.8,0 1.4,0.6 1.4,1.4 V 30 h 3.4 c 3.5,0 6.2,2.8 6.2,6.2 v 14.2 c 0,0.8 -0.6,1.4 -1.4,1.4 -0.8,0 -1.4,-0.6 -1.4,-1.4 V 36.2 c 0,-1.9 -1.5,-3.4 -3.4,-3.4 H 120 v 17.6 c 0,0.8 -0.6,1.4 -1.4,1.4 -0.7,0.1 -1.4,-0.5 -1.4,-1.3 z"
   id="path39"
   style="fill:#ffffff;stroke:#ffffff;stroke-width:1.5;stroke-dasharray:none" />
	<path
   class="st0"
   d="m 131.8,60.1 c 0,-0.8 0.6,-1.4 1.4,-1.4 1.5,0 2.8,-0.9 3.2,-2.4 l 1.7,-5.8 -5.6,-18.8 c -0.2,-0.8 0.2,-1.6 1,-1.8 0.8,-0.2 1.5,0.2 1.8,1 l 4.4,14.6 4.4,-14.6 c 0.2,-0.7 1,-1.2 1.8,-1 0.8,0.2 1.2,1.1 1,1.8 l -5.8,19.2 -1.8,6.1 c -0.4,1.4 -1.2,2.4 -2.3,3.2 -1.1,0.8 -2.4,1.2 -3.7,1.2 -0.8,0.1 -1.5,-0.5 -1.5,-1.3 z"
   id="path41"
   style="fill:#ffffff;stroke:#ffffff;stroke-width:1.5;stroke-dasharray:none" />
	<path
   class="st0"
   d="m 157.8,45.8 c 0,-1 -0.5,-1.7 -1.3,-2.3 L 152,40.3 c -1.5,-1 -2.3,-2.6 -2.4,-4.3 -0.1,-1.8 0.6,-3.5 1.9,-4.6 1.3,-1.2 3,-1.7 4.8,-1.5 1.7,0.3 3.2,1.3 4.1,2.8 0.4,0.7 0.2,1.6 -0.5,2 -0.7,0.4 -1.6,0.2 -2,-0.5 -0.4,-0.8 -1.2,-1.2 -2.1,-1.4 -0.9,-0.2 -1.7,0.1 -2.4,0.7 -0.7,0.6 -1,1.4 -0.9,2.3 0,0.9 0.5,1.6 1.2,2.2 l 4.5,3.1 c 1.5,1.1 2.4,2.6 2.5,4.5 0.1,1.9 -0.6,3.6 -1.9,4.8 -1.3,1.3 -3.1,1.8 -4.9,1.5 -1.9,-0.3 -3.4,-1.3 -4.3,-2.9 -0.4,-0.7 -0.2,-1.6 0.5,-2 0.7,-0.4 1.6,-0.2 2,0.5 0.5,0.8 1.2,1.3 2.2,1.5 0.9,0.1 1.8,-0.1 2.5,-0.8 0.8,-0.7 1.1,-1.5 1,-2.4 z"
   id="path43"
   style="fill:#ffffff;stroke:#ffffff;stroke-width:1.5;stroke-dasharray:none" />
	<path
   class="st0"
   d="M 172.5,44.7 V 28.4 c 0,-3.3 2.2,-6.1 5.4,-7.1 3.2,-0.9 6.5,0.6 8.2,3.4 0.4,0.7 0.1,1.7 -0.6,2.1 -0.7,0.4 -1.7,0.1 -2.1,-0.6 -1,-1.7 -2.9,-2.5 -4.8,-2 -1.9,0.5 -3.1,2.2 -3.1,4.1 v 16.3 c 0,1.9 1.2,3.6 3.1,4.1 1.9,0.5 3.8,-0.3 4.8,-2 0.4,-0.7 1.4,-1 2.1,-0.6 0.7,0.4 1,1.4 0.6,2.1 -1.6,2.9 -5,4.3 -8.2,3.4 -3.3,-0.8 -5.4,-3.6 -5.4,-6.9 z"
   id="path45"
   style="fill:#ffffff;stroke:#ffffff;stroke-width:1.5;stroke-dasharray:none" />
	<path
   class="st0"
   d="m 189.6,45.7 v -9.6 c 0,-3.5 2.8,-6.2 6.2,-6.2 3.4,0 6.2,2.8 6.2,6.2 v 9.6 c 0,3.5 -2.8,6.2 -6.2,6.2 -3.4,0 -6.2,-2.8 -6.2,-6.2 z m 2.9,-9.6 v 9.6 c 0,1.9 1.5,3.4 3.4,3.4 1.9,0 3.4,-1.5 3.4,-3.4 v -9.6 c 0,-1.9 -1.5,-3.4 -3.4,-3.4 -1.9,0 -3.4,1.5 -3.4,3.4 z"
   id="path47"
   style="fill:#ffffff;stroke:#ffffff;stroke-width:1.5;stroke-dasharray:none" />
	<path
   class="st0"
   d="M 206,45.5 V 31.3 c 0,-0.8 0.6,-1.4 1.4,-1.4 0.8,0 1.4,0.6 1.4,1.4 v 14.2 c 0,1.9 1.5,3.4 3.4,3.4 h 3.4 V 31.3 c 0,-0.8 0.6,-1.4 1.4,-1.4 0.8,0 1.4,0.6 1.4,1.4 v 19 c 0,0.8 -0.6,1.4 -1.4,1.4 h -4.8 c -3.4,0 -6.2,-2.8 -6.2,-6.2 z"
   id="path49"
   style="fill:#ffffff;stroke:#ffffff;stroke-width:1.5;stroke-dasharray:none" />
	<path
   class="st0"
   d="m 223,50.5 v -19 c 0,-0.8 0.6,-1.4 1.4,-1.4 h 4.8 c 1.1,0 2.1,0.3 3.1,0.8 0.7,0.4 0.9,1.2 0.5,2 -0.4,0.8 -1.2,1 -2,0.5 -0.5,-0.3 -1.1,-0.4 -1.7,-0.4 h -3.4 v 17.6 c 0,0.8 -0.6,1.4 -1.4,1.4 -0.6,-0.1 -1.3,-0.7 -1.3,-1.5 z"
   id="path51"
   style="fill:#ffffff;stroke:#ffffff;stroke-width:1.5;stroke-dasharray:none" />
	<path
   class="st0"
   d="m 243.8,45.8 c 0,-1 -0.5,-1.7 -1.3,-2.3 L 238,40.3 c -1.5,-1 -2.3,-2.6 -2.4,-4.3 -0.1,-1.8 0.6,-3.5 1.9,-4.6 1.3,-1.2 3,-1.7 4.8,-1.5 1.7,0.3 3.2,1.3 4.1,2.8 0.4,0.7 0.2,1.6 -0.5,2 -0.7,0.4 -1.6,0.2 -2,-0.5 -0.4,-0.8 -1.2,-1.2 -2.1,-1.4 -0.9,-0.2 -1.7,0.1 -2.4,0.7 -0.7,0.6 -1,1.4 -0.9,2.3 0,0.9 0.5,1.6 1.2,2.2 l 4.5,3.1 c 1.5,1.1 2.4,2.6 2.5,4.5 0.1,1.9 -0.6,3.6 -1.9,4.8 -1.3,1.3 -3.1,1.8 -4.9,1.5 -1.9,-0.3 -3.4,-1.3 -4.3,-2.9 -0.4,-0.7 -0.2,-1.6 0.5,-2 0.7,-0.4 1.6,-0.2 2,0.5 0.5,0.8 1.2,1.3 2.2,1.5 0.9,0.1 1.8,-0.1 2.5,-0.8 0.8,-0.7 1.1,-1.5 1,-2.4 z"
   id="path53"
   style="fill:#ffffff;stroke:#ffffff;stroke-width:1.5;stroke-dasharray:none" />
	<path
   class="st0"
   d="m 250.2,45.7 v -9.6 c 0,-3.5 2.8,-6.2 6.2,-6.2 3.5,0 6.2,2.8 6.2,6.2 v 4.8 c 0,0.8 -0.6,1.4 -1.4,1.4 H 253 v 3.4 c 0,1.3 0.8,2.6 2.1,3.1 1.3,0.5 2.7,0.2 3.6,-0.7 0.3,-0.3 0.6,-0.4 1,-0.4 0.4,0 0.8,0.1 1.1,0.4 0.3,0.2 0.4,0.6 0.4,1 0,0.4 -0.1,0.7 -0.4,1 -1.8,1.8 -4.5,2.3 -6.8,1.3 -2.3,-0.9 -3.8,-3.2 -3.8,-5.7 z m 2.9,-9.6 v 3.4 h 6.7 v -3.4 c 0,-1.9 -1.5,-3.4 -3.4,-3.4 -1.9,0 -3.3,1.5 -3.3,3.4 z"
   id="path55"
   style="fill:#ffffff;stroke:#ffffff;stroke-width:1.5;stroke-dasharray:none" />
</g>
<text
   xml:space="preserve"
   style="font-size:21.3333px;font-family:Gabriola;-inkscape-font-specification:Gabriola;text-align:center;text-anchor:middle;opacity:1;fill:#f2f2f2;fill-opacity:0.996078;stroke:#f2f2f2;stroke-width:1.5;stroke-dasharray:none;stroke-opacity:1"
   x="201.81819"
   y="68.132233"
   id="text1778"><tspan
     sodipodi:role="line"
     id="tspan1776"
     x="201.81819"
     y="68.132233"
     style="font-style:normal;font-variant:normal;font-weight:normal;font-stretch:normal;font-size:21.3333px;font-family:Calibri;-inkscape-font-specification:Calibri;stroke:#f2f2f2;fill:#f2f2f2;stroke-opacity:1">Oct 2023</tspan></text><g
   id="Layer_1-2"
   data-name="Layer 1"
   style="isolation:isolate"
   transform="translate(0.1859501,0.43388428)"><circle
     class="cls-2"
     cx="37.5"
     cy="37.5"
     r="33.799999"
     id="circle2299"
     style="fill:#ffffff" /><line
     class="cls-3"
     x1="48.299999"
     y1="9.5"
     x2="56.599998"
     y2="59.200001"
     id="line2301"
     style="mix-blend-mode:multiply;fill:none;stroke:#2fb6df;stroke-width:3.59px;stroke-linecap:round;stroke-miterlimit:10" /><line
     class="cls-3"
     x1="27.700001"
     y1="20.5"
     x2="56.599998"
     y2="59.200001"
     id="line2303"
     style="mix-blend-mode:multiply;fill:none;stroke:#2fb6df;stroke-width:3.59px;stroke-linecap:round;stroke-miterlimit:10" /><line
     class="cls-4"
     x1="8.6000004"
     y1="40"
     x2="27.700001"
     y2="20.5"
     id="line2305"
     style="mix-blend-mode:multiply;fill:none;stroke:#d6aacd;stroke-width:3.59px;stroke-linecap:round;stroke-miterlimit:10" /><line
     class="cls-5"
     x1="8.6000004"
     y1="40"
     x2="56.599998"
     y2="59.200001"
     id="line2307"
     style="mix-blend-mode:multiply;fill:none;stroke:#b5b5b6;stroke-width:3.59px;stroke-linecap:round;stroke-miterlimit:10" /><line
     class="cls-3"
     x1="56.599998"
     y1="59.200001"
     x2="61.900002"
     y2="44.400002"
     id="line2309"
     style="mix-blend-mode:multiply;fill:none;stroke:#2fb6df;stroke-width:3.59px;stroke-linecap:round;stroke-miterlimit:10" /><line
     class="cls-6"
     x1="27.700001"
     y1="20.5"
     x2="61.900002"
     y2="44.400002"
     id="line2311"
     style="mix-blend-mode:multiply;fill:none;stroke:#ea6a3f;stroke-width:3.59px;stroke-linecap:round;stroke-miterlimit:10" /><line
     class="cls-5"
     x1="8.6000004"
     y1="40"
     x2="61.900002"
     y2="44.400002"
     id="line2313"
     style="mix-blend-mode:multiply;fill:none;stroke:#b5b5b6;stroke-width:3.59px;stroke-linecap:round;stroke-miterlimit:10" /><line
     class="cls-7"
     x1="48.299999"
     y1="9.5"
     x2="61.900002"
     y2="44.400002"
     id="line2315"
     style="mix-blend-mode:multiply;fill:none;stroke:#fbd026;stroke-width:3.59px;stroke-linecap:round;stroke-miterlimit:10" /><circle
     class="cls-8"
     cx="37.5"
     cy="37.5"
     r="37.5"
     id="circle2317"
     style="fill:none" /></g></svg>
