<?xml version="1.0" encoding="UTF-8"?><svg xmlns="http://www.w3.org/2000/svg" viewBox="0 0 302.87 76.1"><defs><style>.cls-1{isolation:isolate;}.cls-2{stroke:#ea6a3f;}.cls-2,.cls-3,.cls-4,.cls-5,.cls-6{fill:none;mix-blend-mode:multiply;stroke-linecap:round;stroke-miterlimit:10;stroke-width:3.59px;}.cls-3{stroke:#fbd026;}.cls-4{stroke:#d6aacd;}.cls-5{stroke:#2fb6df;}.cls-6{stroke:#b5b5b6;}.cls-7{fill:#fff;stroke-width:0px;}</style></defs><g class="cls-1"><g id="Circle"><circle class="cls-7" cx="38" cy="38" r="33.8"/></g><g id="Logo"><line class="cls-5" x1="48.8" y1="10" x2="57.1" y2="59.7"/><line class="cls-5" x1="28.2" y1="21" x2="57.1" y2="59.7"/><line class="cls-4" x1="9.1" y1="40.5" x2="28.2" y2="21"/><line class="cls-6" x1="9.1" y1="40.5" x2="57.1" y2="59.7"/><line class="cls-5" x1="57.1" y1="59.7" x2="62.4" y2="44.9"/><line class="cls-2" x1="28.2" y1="21" x2="62.4" y2="44.9"/><line class="cls-6" x1="9.1" y1="40.5" x2="62.4" y2="44.9"/><line class="cls-3" x1="48.8" y1="10" x2="62.4" y2="44.9"/></g><g id="Ephys_Course"><path class="cls-7" d="M92.85,51.66c-.24,0-.36-.13-.36-.41v-28.66c0-.27.1-.41.32-.41h10.17c.21,0,.31.14.31.41v2.02c0,.27-.11.4-.31.4h-7.56v10.26h6.93c.21,0,.31.13.31.4v1.89c0,.27-.11.41-.31.41h-6.93v10.84h7.56c.21,0,.31.13.31.41v2.02c0,.27-.11.41-.31.41h-10.12Z"/><path class="cls-7" d="M107.52,59.98c-.21,0-.31-.13-.31-.41v-24.75c0-1.08,0-1.99-.02-2.72-.02-.73-.05-1.36-.11-1.87-.03-.3.06-.45.27-.45h1.93c.24,0,.38.14.41.41.06.3.1.73.13,1.28.03.56.06,1.12.09,1.69l.23,1.08v25.33c0,.27-.11.41-.32.41h-2.29ZM113.96,51.93c-.75,0-1.5-.12-2.25-.36-.75-.24-1.41-.52-1.98-.86l-.04-2.75c.51.27,1.06.53,1.64.77s1.21.36,1.87.36c.78,0,1.37-.35,1.75-1.06s.58-1.85.58-3.44v-9.4c0-1.05-.14-1.79-.43-2.23-.29-.43-.73-.65-1.33-.65-.72,0-1.43.3-2.14.9-.71.6-1.4,1.38-2.09,2.34l-.23-2.61c.84-1.08,1.69-1.92,2.54-2.52.85-.6,1.79-.9,2.81-.9,1.26,0,2.21.43,2.83,1.28s.95,2.23.95,4.12v9.77c0,2.43-.38,4.25-1.15,5.44-.77,1.2-1.88,1.8-3.35,1.8Z"/><path class="cls-7" d="M122.64,51.66c-.21,0-.31-.13-.31-.41v-29.92c0-.27.1-.4.31-.4h2.29c.21,0,.32.13.32.4v29.92c0,.27-.11.41-.32.41h-2.29ZM131.19,51.66c-.21,0-.31-.13-.31-.41v-16.06c0-.99-.15-1.72-.45-2.18-.3-.46-.78-.7-1.44-.7-.6,0-1.24.25-1.91.74s-1.39,1.22-2.14,2.18l-.22-2.43c.87-1.08,1.73-1.9,2.59-2.45.85-.55,1.78-.83,2.77-.83,1.23,0,2.16.45,2.79,1.35.63.9.95,2.28.95,4.14v16.24c0,.27-.11.41-.31.41h-2.3Z"/><path class="cls-7" d="M139.88,59.98c-.21,0-.29-.17-.22-.5l1.93-8.1-5-21.15c-.09-.3-.03-.45.18-.45h2.52c.21,0,.33.11.36.31l2.16,10.67c.24.99.44,2.01.61,3.06.16,1.05.32,2.07.47,3.06h.09c.15-.99.32-2.02.52-3.08.19-1.06.4-2.09.61-3.08l2.07-10.62c.03-.21.15-.31.36-.31h2.43c.09,0,.17.04.23.14.06.09.06.21,0,.36l-6.66,29.38c-.03.21-.15.32-.36.32h-2.29Z"/><path class="cls-7" d="M156.66,51.93c-1.83,0-3.17-.57-4-1.71-.84-1.14-1.19-2.8-1.04-4.99,0-.24.1-.36.31-.36h2.29c.18,0,.27.11.27.31-.03,1.44.11,2.46.43,3.06.31.6.92.9,1.82.9,1.53,0,2.29-.99,2.29-2.97,0-.78-.13-1.43-.38-1.96-.25-.52-.68-1.03-1.28-1.51l-2.97-2.34c-.93-.72-1.61-1.54-2.03-2.45s-.63-2.02-.63-3.31c0-1.62.43-2.87,1.28-3.76.86-.88,2.09-1.33,3.71-1.33s2.95.51,3.8,1.53c.85,1.02,1.19,2.42,1.01,4.19,0,.24-.11.36-.31.36h-2.25c-.06,0-.13-.01-.2-.04-.08-.03-.1-.16-.07-.41.06-.9-.08-1.6-.4-2.11-.33-.51-.89-.77-1.67-.77-1.38,0-2.07.78-2.07,2.34,0,.75.14,1.38.43,1.89.28.51.71,1.02,1.28,1.53l2.92,2.34c1.02.84,1.72,1.67,2.09,2.47.38.81.56,1.88.56,3.2,0,1.92-.44,3.38-1.33,4.39-.89,1-2.18,1.51-3.89,1.51Z"/><path class="cls-7" d="M177.81,51.93c-2.28,0-4.02-.73-5.22-2.2-1.2-1.47-1.8-3.69-1.8-6.66v-12.28c0-2.97.6-5.19,1.8-6.66,1.2-1.47,2.94-2.21,5.22-2.21,1.65,0,3.01.4,4.09,1.19,1.08.8,1.84,1.92,2.29,3.38.45,1.46.55,3.19.32,5.2-.06.24-.17.36-.32.36h-2.29c-.27,0-.38-.15-.31-.45.18-2.25-.04-3.95-.65-5.11-.62-1.15-1.66-1.73-3.13-1.73-1.32,0-2.33.5-3.04,1.49-.71.99-1.06,2.58-1.06,4.77v11.83c0,2.16.35,3.74,1.06,4.75.7,1,1.72,1.51,3.04,1.51,1.56,0,2.63-.61,3.22-1.84.58-1.23.8-2.89.65-5-.06-.3.04-.45.31-.45h2.12c.27,0,.42.15.45.45.18,3.09-.3,5.48-1.44,7.16-1.14,1.68-2.91,2.52-5.31,2.52Z"/><path class="cls-7" d="M193.79,51.93c-2.01,0-3.5-.59-4.46-1.78-.96-1.18-1.44-3.01-1.44-5.47v-7.88c0-2.49.48-4.33,1.44-5.51.96-1.19,2.44-1.78,4.46-1.78s3.49.59,4.45,1.78,1.44,3.02,1.44,5.51v7.88c0,2.46-.48,4.28-1.44,5.47-.96,1.19-2.45,1.78-4.45,1.78ZM193.79,49.09c1.05,0,1.81-.34,2.27-1.03.46-.69.7-1.83.7-3.42v-7.74c0-1.62-.23-2.79-.7-3.51-.47-.72-1.22-1.08-2.27-1.08s-1.81.36-2.27,1.08-.7,1.89-.7,3.51v7.74c0,1.59.24,2.73.72,3.42.48.69,1.23,1.03,2.25,1.03Z"/><path class="cls-7" d="M207.2,51.93c-1.38,0-2.35-.44-2.9-1.33-.56-.88-.83-2.27-.83-4.16v-16.24c0-.27.1-.41.31-.41h2.29c.21,0,.32.14.32.41v16.2c0,1.08.13,1.8.38,2.16.25.36.67.54,1.24.54.78,0,1.52-.3,2.23-.9.7-.6,1.39-1.41,2.05-2.43l.27,2.52c-.78,1.05-1.62,1.92-2.52,2.61-.9.69-1.84,1.03-2.83,1.03ZM212.46,51.66c-.18,0-.3-.13-.36-.41-.06-.63-.11-1.37-.16-2.23-.04-.85-.07-1.49-.07-1.91l-.23-.27v-16.65c0-.27.12-.41.36-.41h2.25c.21,0,.31.14.31.41v16.06c0,1.26.02,2.29.05,3.08.03.79.06,1.4.09,1.82.03.33-.06.5-.27.5h-1.98Z"/><path class="cls-7" d="M219.03,51.66c-.21,0-.31-.13-.31-.41v-16.06c0-1.26,0-2.29-.02-3.08-.02-.79-.05-1.4-.11-1.82-.03-.33.06-.5.27-.5h2.07c.15,0,.24.14.27.41.06.6.12,1.33.18,2.18s.09,1.51.09,1.96l.18.27v16.65c0,.27-.11.41-.32.41h-2.29ZM221.37,35.82l-.18-2.83c.36-.57.77-1.12,1.24-1.64.46-.52.97-.96,1.53-1.31.55-.34,1.15-.52,1.78-.52.27,0,.5.02.67.04.12.03.2.09.25.18s.07.21.07.36c0,.51,0,.99-.02,1.44-.02.45-.05.93-.11,1.44-.03.21-.14.3-.32.27-.15-.06-.31-.1-.47-.11-.17-.01-.35-.02-.56-.02-.63,0-1.3.24-2.02.72-.72.48-1.34,1.14-1.85,1.98Z"/><path class="cls-7" d="M233.39,51.93c-1.83,0-3.17-.57-4-1.71-.84-1.14-1.19-2.8-1.04-4.99,0-.24.1-.36.31-.36h2.29c.18,0,.27.11.27.31-.03,1.44.11,2.46.43,3.06.31.6.92.9,1.82.9,1.53,0,2.29-.99,2.29-2.97,0-.78-.13-1.43-.38-1.96-.25-.52-.68-1.03-1.28-1.51l-2.97-2.34c-.93-.72-1.61-1.54-2.03-2.45s-.63-2.02-.63-3.31c0-1.62.43-2.87,1.28-3.76.86-.88,2.09-1.33,3.71-1.33s2.95.51,3.8,1.53c.85,1.02,1.19,2.42,1.01,4.19,0,.24-.11.36-.31.36h-2.25c-.06,0-.13-.01-.2-.04-.08-.03-.1-.16-.07-.41.06-.9-.08-1.6-.4-2.11-.33-.51-.89-.77-1.67-.77-1.38,0-2.07.78-2.07,2.34,0,.75.14,1.38.43,1.89.28.51.71,1.02,1.28,1.53l2.92,2.34c1.02.84,1.72,1.67,2.09,2.47.38.81.56,1.88.56,3.2,0,1.92-.44,3.38-1.33,4.39-.89,1-2.18,1.51-3.89,1.51Z"/><path class="cls-7" d="M247.56,51.93c-2.01,0-3.5-.63-4.46-1.89-.96-1.26-1.44-3.21-1.44-5.85v-7.51c0-2.49.48-4.3,1.44-5.45.96-1.14,2.38-1.71,4.27-1.71s3.28.59,4.25,1.78c.97,1.19,1.46,2.95,1.46,5.29v4.45c0,.24-.11.36-.31.36h-8.19v2.75c0,1.74.23,3,.7,3.78.46.78,1.22,1.17,2.27,1.17.9,0,1.56-.25,1.98-.74.42-.5.6-1.24.54-2.23-.06-.3.03-.45.27-.45h2.16c.21,0,.32.12.32.36.06,1.89-.37,3.35-1.28,4.37-.92,1.02-2.24,1.53-3.98,1.53ZM244.59,38.65h5.58v-2.02c0-1.53-.22-2.63-.65-3.31-.44-.68-1.15-1.01-2.14-1.01s-1.67.35-2.12,1.04c-.45.69-.67,1.79-.67,3.29v2.02Z"/></g></g></svg>